<svg xmlns="http://www.w3.org/2000/svg" height="40px" viewBox="0 -960 960 960" width="40px" fill="#e3e3e3"><path d="M180.5-180.5Q160-201 160-230.67q0-29.66 20.5-50.16 20.5-20.5 50.17-20.5 29.66 0 50.16 20.5 20.5 20.5 20.5 50.16 0 29.67-20.5 50.17T230.67-160q-29.67 0-50.17-20.5Zm249.33 0q-20.5-20.5-20.5-50.17 0-29.66 20.5-50.16 20.5-20.5 50.17-20.5t50.17 20.5q20.5 20.5 20.5 50.16 0 29.67-20.5 50.17T480-160q-29.67 0-50.17-20.5Zm249.34 0q-20.5-20.5-20.5-50.17 0-29.66 20.5-50.16 20.5-20.5 50.16-20.5 29.67 0 50.17 20.5t20.5 50.16q0 29.67-20.5 50.17T729.33-160q-29.66 0-50.16-20.5ZM180.5-429.83Q160-450.33 160-480t20.5-50.17q20.5-20.5 50.17-20.5 29.66 0 50.16 20.5 20.5 20.5 20.5 50.17t-20.5 50.17q-20.5 20.5-50.16 20.5-29.67 0-50.17-20.5Zm249.33 0q-20.5-20.5-20.5-50.17t20.5-50.17q20.5-20.5 50.17-20.5t50.17 20.5q20.5 20.5 20.5 50.17t-20.5 50.17q-20.5 20.5-50.17 20.5t-50.17-20.5Zm249.34 0q-20.5-20.5-20.5-50.17t20.5-50.17q20.5-20.5 50.16-20.5 29.67 0 50.17 20.5T800-480q0 29.67-20.5 50.17t-50.17 20.5q-29.66 0-50.16-20.5ZM180.5-679.17q-20.5-20.5-20.5-50.16 0-29.67 20.5-50.17t50.17-20.5q29.66 0 50.16 20.5 20.5 20.5 20.5 50.17 0 29.66-20.5 50.16-20.5 20.5-50.16 20.5-29.67 0-50.17-20.5Zm249.33 0q-20.5-20.5-20.5-50.16 0-29.67 20.5-50.17T480-800q29.67 0 50.17 20.5t20.5 50.17q0 29.66-20.5 50.16-20.5 20.5-50.17 20.5t-50.17-20.5Zm249.34 0q-20.5-20.5-20.5-50.16 0-29.67 20.5-50.17t50.16-20.5q29.67 0 50.17 20.5t20.5 50.17q0 29.66-20.5 50.16-20.5 20.5-50.17 20.5-29.66 0-50.16-20.5Z"/></svg>